<svg id="visual" viewBox="0 0 900 600" width="900" height="600" xmlns="http://www.w3.org/2000/svg" xmlns:xlink="http://www.w3.org/1999/xlink" version="1.1"><path d="M0 388L21.5 405.5C43 423 86 458 128.8 463.3C171.7 468.7 214.3 444.3 257.2 440.7C300 437 343 454 385.8 467.5C428.7 481 471.3 491 514.2 483.5C557 476 600 451 642.8 442.7C685.7 434.3 728.3 442.7 771.2 456.2C814 469.7 857 488.3 878.5 497.7L900 507L900 601L878.5 601C857 601 814 601 771.2 601C728.3 601 685.7 601 642.8 601C600 601 557 601 514.2 601C471.3 601 428.7 601 385.8 601C343 601 300 601 257.2 601C214.3 601 171.7 601 128.8 601C86 601 43 601 21.5 601L0 601Z" fill="#E2F1E7" stroke-linecap="round" stroke-linejoin="miter"></path></svg>